# AST/ASF file generated using VICON BodyLanguage
# -----------------------------------------------
:version 1.10
:name VICON
:units
  mass 1.0
  length 0.45
  angle deg
:documentation
   .ast/.asf automatically generated from VICON data using
   VICON BodyBuilder and BodyLanguage model FoxedUp or BRILLIANT.MOD
:root
   order TX TY TZ RX RY RZ
   axis XYZ
   position 0 0 0  
   orientation 0 0 0 
:bonedata
  begin
     id 1 
     name lhipjoint
     direction 0.560651 -0.75055 0.34978 
     length 2.44936 
     axis 0 0 0  XYZ
  end
  begin
     id 2 
     name lfemur
     direction 0.34202 -0.939693 0  
     length 7.42139  
     axis 0 0 20  XYZ
    dof rx ry rz
    limits (-160.0 20.0)
           (-70.0 70.0)
           (-60.0 70.0)
  end
  begin
     id 3 
     name ltibia
     direction 0.34202 -0.939693 0   
     length 7.75674   
     axis 0 0 20   XYZ
    dof rx
    limits (-10.0 170.0)
  end
  begin
     id 4 
     name lfoot
     direction 0.0925879 -0.254383 0.962661   
     length 2.38688   
     axis -90 7.62852e-016 20   XYZ
    dof rx rz
    limits (-45.0 90.0)
           (-70.0 20.0)
  end
  begin
     id 5 
     name ltoes
     direction 1.53567e-011 -4.21973e-011 1   
     length 1.19228   
     axis -90 7.62852e-016 20   XYZ
    dof rx
    limits (-90.0 20.0)
  end
  begin
     id 6 
     name rhipjoint
     direction -0.540087 -0.762838 0.355506   
     length 2.4099  
     axis 0 0 0  XYZ 
  end
  begin
     id 7 
     name rfemur
     direction -0.34202 -0.939693 0   
     length 7.70794   
     axis 0 0 -20   XYZ
    dof rx ry rz
    limits (-160.0 20.0)
           (-70.0 70.0)
           (-70.0 60.0)
  end
  begin
     id 8 
     name rtibia
     direction -0.34202 -0.939693 0   
     length 7.66106   
     axis 0 0 -20   XYZ
    dof rx
    limits (-10.0 170.0)
 end
 begin
     id 9 
     name rfoot
     direction -0.0830975 -0.228308 0.970036   
     length 2.4989  
     axis -90 -7.62852e-016 -20   XYZ
    dof rx rz
    limits (-45.0 90.0)
           (-20.0 70.0)
  end
  begin
     id 10 
     name rtoes
     direction -1.53517e-011 -4.21842e-011 1   
     length 1.2498   
     axis -90 -7.62852e-016 -20   XYZ
    dof rx
    limits (-90.0 20.0)
  end
  begin
     id 11 
     name lowerback
     direction 0.0266356 0.99402 -0.105896   
     length 2.1545   
     axis 0 0 0   XYZ
    dof rx ry rz
    limits (-20.0 45.0)
           (-30.0 30.0)
           (-30.0 30.0)
  end
  begin
     id 12 
     name upperback
     direction 0.0130547 0.999192 0.0380027   
     length 2.1434   
     axis 0 0 0   XYZ
    dof rx ry rz
    limits (-20.0 45.0)
           (-30.0 30.0)
           (-30.0 30.0)
  end
  begin
     id 13 
     name thorax
     direction 0.000590299 0.996288 0.0860764   
     length 2.19049   
     axis 0 0 0   XYZ
    dof rx ry rz
    limits (-20.0 45.0)
           (-30.0 30.0)
           (-30.0 30.0)
  end
  begin
     id 14 
     name lowerneck
     direction -0.0432125 0.978219 0.203028   
     length 1.62441   
     axis 0 0 0   XYZ
    dof rx ry rz
    limits (-20.0 45.0)
           (-30.0 30.0)
           (-30.0 30.0)
  end
  begin
     id 15 
     name upperneck
     direction -0.0192309 0.991699 -0.127138   
     length 1.66666   
     axis 0 0 0   XYZ
    dof rx ry rz
    limits (-20.0 45.0)
           (-30.0 30.0)
           (-30.0 30.0)
  end
  begin
     id 16
     name head
     direction -0.00434499 0.997882 -0.0649107  
     length 1.67142  
     axis 0 0 0   XYZ
    dof rx ry rz
    limits (-20.0 45.0)
           (-30.0 30.0)
           (-30.0 30.0)
  end
  begin
     id 17 
     name lclavicle
     direction 0.970351 0.240904 -0.0196058  
     length 4.04862  
     axis 0 0 0   XYZ
    dof ry rz
    limits (-20.0 10.0)
           (0.0 20.0)
  end
  begin
     id 18 
     name lhumerus
     direction 1 -4.4896e-011 -1.40911e-018   
     length 5.58345   
     axis 180 -30 -90   XYZ
    dof rx ry rz
    limits (-60.0 90.0)
           (-90.0 90.0)
           (-90.0 90.0)
  end
  begin
     id 19
     name lradius
     direction 1 -4.48968e-011 5.88912e-028   
     length 3.71087   
     axis 180 -30 -90   XYZ
    dof rx
    limits (-10.0 170.0)
  end
  begin
     id 20
     name lwrist
     direction 1 -4.48955e-011 -8.83775e-028   
     length 1.85544   
     axis 5.52448e-016 90 90   XYZ
    dof ry
    limits (-180.0 0.0)
 end
  begin
     id 21 
     name lhand
     direction 1 -4.49035e-011 -1.76755e-027   
     length 0.562322   
     axis 1.12785e-015 90 90   XYZ
    dof rx rz
    limits (-90.0 90.0)
           (-45.0 45.0)
  end
  begin
     id 22 
     name lfingers
     direction 1 -4.48824e-011 -3.5351e-027   
     length 0.453359   
     axis 2.2557e-015 90 90   XYZ
    dof rx
    limits (0.0 90.0)
  end
  begin
     id 23
     name lthumb
     direction 0.707107 -6.34888e-011 0.707107   
     length 0.650935   
     axis -90 45 2.85299e-015   XYZ
    dof rx rz
    limits (-45.0 45.0)
           (-45.0 45.0)
  end
  begin
     id 24 
     name rclavicle
     direction -0.96165 0.268562 -0.0557131   
     length 4.05446  
     axis 0 0 0   XYZ 
    dof ry rz
    limits (-10.0 20.0)
           (-20.0 0.0)
  end
  begin
     id 25 
     name rhumerus
     direction -1 -4.48957e-011 -3.36329e-027  
     length 5.20357   
     axis 180 30 90   XYZ
    dof rx ry rz
    limits (-90.0 60.0)
           (-90.0 90.0)
           (-90.0 90.0)
  end
  begin
     id 26 
     name rradius
     direction -1 -4.48974e-011 4.51441e-027   
     length 3.64937   
     axis 180 30 90   XYZ
    dof rx
    limits (-10.0 170.0)
  end
  begin
     id 27 
     name rwrist
     direction -1 -4.4896e-011 -8.83775e-028   
     length 1.82468   
     axis 5.52448e-016 -90 -90   XYZ
    dof ry
    limits (-180.0 0.0)
  end
  begin
     id 28
     name rhand
     direction -1 -4.48996e-011 -1.76755e-027   
     length 0.617996   
     axis 1.12785e-015 -90 -90   XYZ
    dof rx rz
    limits (-90.0 90.0)
           (-45.0 45.0)
  end
  begin
     id 29
     name rfingers
     direction -1 -4.48957e-011 -3.5351e-027   
     length 0.498244   
     axis 2.2557e-015 -90 -90   XYZ
    dof rx
    limits (0.0 90.0)
  end
  begin
     id 30
     name rthumb
     direction -0.707107 -6.34931e-011 0.707107   
     length 0.715382   
     axis -90 -45 -2.85299e-015   XYZ
    dof rx rz
    limits (-45.0 45.0)
           (-45.0 45.0)
  end
:hierarchy
  begin
    root lhipjoint rhipjoint lowerback
    lhipjoint lfemur
    lfemur ltibia
    ltibia lfoot
    lfoot ltoes
    rhipjoint rfemur
    rfemur rtibia
    rtibia rfoot
    rfoot rtoes
    lowerback upperback
    upperback thorax
    thorax lowerneck lclavicle rclavicle
    lowerneck upperneck
    upperneck head
    lclavicle lhumerus
    lhumerus lradius
    lradius lwrist
    lwrist lhand lthumb
    lhand lfingers
    rclavicle rhumerus
    rhumerus rradius
    rradius rwrist
    rwrist rhand rthumb
    rhand rfingers
  end

#!OML:ASF H:\ManfredETheater\Project 1\Capture day 2\Session 1\Male1.ASF
:FULLY-SPECIFIED
:DEGREES
80
root 5.0394 17.1778 13.5016 -79.1155 -11.3921 188.707
lowerback 33.442 1.97821 10.2498
upperback 4.11093 5.88125 6.16883
thorax -12.1145 1.84062 -0.999547
lowerneck -16.2401 1.60962 2.60059
upperneck 0.364806 1.9864 -2.60549
head 3.04277 0.972302 -1.17184
rclavicle -4.85035e-014 -1.74931e-014
rhumerus 82.1991 1.14949 -50.2174
rradius 40.2392
rwrist 15.0689
rhand -41.8861 -12.5775
rfingers 7.12502
rthumb -14.7854 -42.0301
lclavicle -4.85035e-014 -1.74931e-014
lhumerus 66.4914 18.1296 58.468
lradius 62.5143
lwrist -22.3983
lhand -33.2473 -6.51097
lfingers 7.12502
lthumb -6.45294 23.3707
rfemur -48.2094 -17.74 19.2202
rtibia 77.5241
rfoot -14.8783 -8.25864
rtoes -2.19461
lfemur -83.3218 3.83848 -11.1318
ltibia 31.6928
lfoot -0.628808 -4.8035
ltoes -23.3626
81
root 4.86476 17.1046 13.0237 -77.3417 -11.426 188.563
lowerback 33.3115 2.03764 10.4939
upperback 3.87041 6.09679 6.20446
thorax -12.2987 1.92167 -1.17171
lowerneck -16.0705 1.44247 2.63757
upperneck 0.593657 1.71894 -2.02868
head 3.07422 0.85976 -1.00781
rclavicle -2.38542e-014 3.73715e-014
rhumerus 82.0293 1.31591 -50.2607
rradius 40.4925
rwrist 15.8264
rhand -43.574 -14.1987
rfingers 7.12502
rthumb -16.4111 -43.5244
lclavicle -2.38542e-014 3.73715e-014
lhumerus 66.8883 18.4584 58.3034
lradius 61.7451
lwrist -24.0909
lhand -34.6433 -7.78412
lfingers 7.12502
lthumb -7.80051 22.052
rfemur -47.7374 -18.5175 19.2487
rtibia 78.5805
rfoot -14.5127 -7.98319
rtoes -1.5717
lfemur -83.9702 3.87166 -11.7008
ltibia 34.4231
lfoot -0.155091 -5.67854
ltoes -23.1547
82
root 4.68716 17.0136 12.5513 -75.6495 -11.3924 188.438
lowerback 33.2244 2.06304 10.7261
upperback 3.63439 6.26677 6.20927
thorax -12.4952 1.98087 -1.35453
lowerneck -15.8814 1.27329 2.62189
upperneck 0.855228 1.4511 -1.33996
head 3.11336 0.752416 -0.797337
rclavicle -5.96354e-014 -8.74653e-015
rhumerus 81.5789 1.6074 -50.1897
rradius 41.0018
rwrist 16.5604
rhand -45.8744 -16.194
rfingers 7.12502
rthumb -18.6249 -45.3224
lclavicle -5.96354e-014 -8.74653e-015
lhumerus 66.8776 18.7004 57.8748
lradius 61.414
lwrist -25.6322
lhand -36.6659 -9.45234
lfingers 7.12502
lthumb -9.75233 20.3019
rfemur -47.1847 -19.3583 19.1573
rtibia 79.4555
rfoot -14.2009 -7.61968
rtoes -1.30806
lfemur -84.5812 3.78983 -12.0584
ltibia 37.5274
lfoot 0.454854 -6.91015
ltoes -22.994
83
root 4.50861 16.9048 12.0835 -74.0388 -11.2924 188.373
lowerback 33.1784 2.08036 10.901
upperback 3.40265 6.40929 6.18958
thorax -12.7094 2.02833 -1.52574
lowerneck -15.6208 1.08683 2.58791
upperneck 1.0614 1.16098 -0.5773
head 3.12094 0.638685 -0.561009
rclavicle -2.78299e-014 -2.94201e-014
rhumerus 80.8032 2.02684 -50.1626
rradius 41.7854
rwrist 17.4848
rhand -48.6732 -18.6479
rfingers 7.12502
rthumb -21.3151 -47.4957
lclavicle -2.78299e-014 -2.94201e-014
lhumerus 66.287 18.8175 57.0399
lradius 61.7802
lwrist -26.976
lhand -39.1035 -11.2799
lfingers 7.12502
lthumb -12.1034 18.3501
rfemur -46.5699 -20.2248 18.9421
rtibia 80.1731
rfoot -13.9236 -7.1784
rtoes -1.3283
lfemur -85.1028 3.65168 -12.2818
ltibia 40.8668
lfoot 1.25123 -8.37665
ltoes -22.7531
84
root 4.33058 16.7784 11.6195 -72.5071 -11.1375 188.397
lowerback 33.1395 0.997004 10.2675
upperback 3.32929 6.89592 6.11554
thorax -12.9474 3.02407 -1.66641
lowerneck -15.4129 0.911147 2.44947
upperneck 1.39941 0.888865 0.355478
head 3.18676 0.541823 -0.24839
rclavicle -3.97569e-015 5.64548e-014
rhumerus 79.694 2.56563 -50.3102
rradius 42.8979
rwrist 18.6636
rhand -51.7814 -21.6733
rfingers 7.12502
rthumb -24.298 -50.1534
lclavicle -3.97569e-015 5.64548e-014
lhumerus 65.0568 18.804 55.807
lradius 62.9803
lwrist -28.1605
lhand -41.8989 -13.0117
lfingers 7.12502
lthumb -14.7977 16.44
rfemur -45.9085 -21.0883 18.6077
rtibia 80.758
rfoot -13.6826 -6.70238
rtoes -1.58088
lfemur -85.4933 3.50698 -12.4383
ltibia 44.3314
lfoot 2.21388 -9.92457
ltoes -22.2813
85
root 4.15391 16.6352 11.1589 -71.0644 -10.9642 188.536
lowerback 33.1587 1.07711 10.2956
upperback 3.15102 6.99727 6.08648
thorax -13.1451 3.03959 -1.75778
lowerneck -15.2875 0.738749 2.26233
upperneck 1.94148 0.613146 1.34178
head 3.34539 0.448072 0.0918218
rclavicle 2.38542e-014 9.54166e-015
rhumerus 78.253 3.21665 -50.7601
rradius 44.4147
rwrist 20.1591
rhand -54.9038 -25.3618
rfingers 7.12502
rthumb -27.2881 -53.4072
lclavicle 2.38542e-014 9.54166e-015
lhumerus 63.2089 18.657 54.3255
lradius 65.028
lwrist -29.292
lhand -44.6847 -14.6333
lfingers 7.12502
lthumb -17.4802 14.6008
rfemur -45.1981 -21.9114 18.1797
rtibia 81.2278
rfoot -13.4558 -6.227
rtoes -1.94024
lfemur -85.7165 3.41425 -12.58
ltibia 47.8361
lfoot 3.33902 -11.3585
ltoes -21.4909
86
root 3.97838 16.4762 10.7005 -69.7216 -10.7913 188.801
lowerback 33.2271 1.17699 10.2407
upperback 3.02546 7.10157 6.0719
thorax -13.3156 3.06449 -1.79331
lowerneck -15.2555 0.570931 1.99954
upperneck 2.6338 0.338615 2.38046
head 3.58235 0.362236 0.467039
rclavicle 6.36111e-014 6.67916e-014
rhumerus 76.5185 3.92511 -51.5426
rradius 46.3591
rwrist 21.9544
rhand -57.7688 -29.5928
rfingers 7.12502
rthumb -30.0253 -57.1755
lclavicle 6.36111e-014 6.67916e-014
lhumerus 60.8246 18.3622 52.7588
lradius 67.8687
lwrist -30.4018
lhand -47.1975 -15.852
lfingers 7.12502
lthumb -19.8972 13.1494
rfemur -44.4342 -22.6901 17.6625
rtibia 81.6028
rfoot -13.2592 -5.79489
rtoes -2.26229
lfemur -85.7293 3.39949 -12.7413
ltibia 51.3056
lfoot 4.49867 -12.5515
ltoes -20.6129
87
root 3.80317 16.3026 10.2439 -68.4794 -10.6529 189.182
lowerback 33.3457 1.2929 10.1273
upperback 2.96713 7.21787 6.09579
thorax -13.4424 3.10464 -1.7628
lowerneck -15.3462 0.410414 1.63449
upperneck 3.50215 0.0695424 3.45233
head 3.91584 0.28739 0.879895
rclavicle -4.45278e-014 -7.95139e-016
rhumerus 74.5543 4.64136 -52.5665
rradius 48.7313
rwrist 23.9099
rhand -60.1281 -34.1952
rfingers 7.12502
rthumb -32.2738 -61.3458
lclavicle -4.45278e-014 -7.95139e-016
lhumerus 58.0423 17.9182 51.2589
lradius 71.3465
lwrist -31.4404
lhand -49.0746 -16.302
lfingers 7.12502
lthumb -21.7007 12.5017
rfemur -43.6189 -23.4194 17.0818
rtibia 81.9004
rfoot -13.0687 -5.40957
rtoes -2.4156
lfemur -85.5126 3.47644 -12.9257
ltibia 54.6796
lfoot 5.63347 -13.4287
ltoes -19.6789
88
root 3.62673 16.1158 9.78846 -67.3336 -10.5735 189.653
lowerback 33.5191 1.41406 9.98695
upperback 2.9794 7.34832 6.17607
thorax -13.5223 3.16047 -1.66391
lowerneck -15.5293 0.280578 1.28369
upperneck 4.8003 -0.185877 4.55894
head 3.94075 0.244452 1.19242
rclavicle 4.69132e-014 -7.95139e-016
rhumerus 72.4468 5.32536 -53.6522
rradius 51.4923
rwrist 25.7884
rhand -61.922 -38.5774
rfingers 7.12502
rthumb -33.9796 -65.3657
lclavicle 4.69132e-014 -7.95139e-016
lhumerus 55.0338 17.3454 49.9588
lradius 75.2157
lwrist -32.3531
lhand -50.3 -16.0536
lfingers 7.12502
lthumb -22.8771 12.6094
rfemur -42.754 -24.1102 16.4485
rtibia 82.145
rfoot -12.924 -5.11971
rtoes -2.4109
lfemur -85.058 3.63232 -13.1168
ltibia 57.9071
lfoot 6.68355 -13.9618
ltoes -18.7597
89
root 3.44771 15.9177 9.33529 -66.2631 -10.5681 190.188
lowerback 33.7351 1.53336 9.84765
upperback 3.05628 7.49406 6.31961
thorax -13.5549 3.23098 -1.50373
lowerneck -15.5999 0.137255 0.872688
upperneck 5.61736 -0.434715 5.5391
head 4.21654 0.188714 1.5469
rclavicle 4.77083e-015 3.33958e-014
rhumerus 70.3009 5.96414 -54.619
rradius 54.5287
rwrist 27.3938
rhand -63.2847 -42.3049
rfingers 7.12502
rthumb -35.2729 -68.7967
lclavicle 4.77083e-015 3.33958e-014
lhumerus 51.9538 16.6729 48.8961
lradius 79.2145
lwrist -33.1101
lhand -50.8094 -14.946
lfingers 7.12502
lthumb -23.3658 13.6558
rfemur -41.8797 -24.795 15.8016
rtibia 82.3535
rfoot -12.7533 -4.91595
rtoes -2.32934
lfemur -84.3937 3.85183 -13.2954
ltibia 60.9584
lfoot 7.62824 -14.1749
ltoes -17.8022
90
root 3.26413 15.7096 8.8846 -65.2469 -10.6277 190.747
lowerback 33.9796 1.63495 9.74258
upperback 3.18415 7.6436 6.51871
thorax -13.5453 3.30786 -1.30256
lowerneck -15.5685 0.00519651 0.502021
upperneck 6.25024 -0.661146 6.40462
head 4.42171 0.136169 1.86107
rclavicle -3.02153e-014 -7.95139e-014
rhumerus 68.233 6.5499 -55.346
rradius 57.6345
rwrist 28.6965
rhand -64.2406 -45.0996
rfingers 7.12502
rthumb -36.1788 -71.372
lclavicle -3.02153e-014 -7.95139e-014
lhumerus 48.922 15.9313 48.0356
lradius 83.1083
lwrist -33.7457
lhand -50.8506 -13.6642
lfingers 7.12502
lthumb -23.4053 14.9325
rfemur -41.0222 -25.5148 15.1338
rtibia 82.5586
rfoot -12.582 -4.83108
rtoes -2.22149
lfemur -83.5578 4.09393 -13.4613
ltibia 63.8159
lfoot 8.47291 -14.1287
ltoes -16.8516
